<?xml version="1.0" encoding="UTF-8"?>
<!-- Generator: Adobe Illustrator 27.4.1, SVG Export Plug-In . SVG Version: 6.00 Build 0)  -->
<svg version="1.1" xmlns="http://www.w3.org/2000/svg" xmlns:xlink="http://www.w3.org/1999/xlink" x="0px" y="0px" viewBox="0 0 139.7 104.9" fill="#004982" style="enable-background:new 0 0 139.7 104.9;" xml:space="preserve">
<g>
	<g>
		<path d="M75.4,98c0,0,2,0.4-0.1,1.3c-10.4,3.7-21.4,5.7-32.4,5.7c-17.7,0-38.6-7.6-42.4-29.4C-3.2,55.1,14.6,24.3,56.6,7.4    c0,0,33.1-13.4,60.6-4.1c0,0,25,7.6,22.3,34.2c0,0-1,23.6-28.9,38.4c0,0-11.8,6.8-11.3-0.8l2.8-23c0,0,1.7-5.2-3.8-2.6    c0,0-2.5,1.4-2-0.6c0,0,0-0.3,1.3-0.8l9.7-2.8c0,0,2.8-1.1,2.2,3.1l-2.7,22c0,0-1.2,5.1,2.4,3.6l0,0c11.4-3.6,19.8-17.3,19.8-17.3    c12.3-21.4,3.2-35.3,3.2-35.3c-11.3-18.8-38.8-18-38.8-18c-40.2,0-64.2,24-64.2,24C-2.4,55,7.5,78.2,7.5,78.2    C21.2,113.6,74.8,98,74.8,98H75.4z"/>
		<path d="M24.1,63.6c-0.1-4.7,3.3-15.2,9.1-15.2c2.2,0,2.7,1.8,2.7,3.6c0,1.3-0.1,2.5-0.4,3.8L24.1,63.6z M40.7,71    c-2.7,2.3-6.4,5.4-10.1,5.4c-5.6,0-6.6-5.8-6.6-10.2c7.3-5,14.1-9.2,20.2-14.4c0.1-0.6,0.2-1.1,0.2-1.7c0-0.2-0.1-0.4-0.4-0.4    c-0.6,0,0,0.3-2.6,2v-1.4c0-3.5-2.4-4.3-5.6-4.3c-11.6,0-19.8,10.7-19.8,21.6c0,6.9,2.9,12,10.5,12c5.8-0.1,11.3-2.7,15.1-7.1    L40.7,71z"/>
		<path d="M52,49.4c3.9-2,8.1-3.2,12.4-3.7c0.8,0,1.1,0.1,1.1,1.4c0,2.8-0.7,6.2-1.2,12.3l0.1,0.1c2.5-5.8,7.4-13.9,13.9-13.9    c3.7,0,4.8,3.7,4.8,6.7s-2.1,18.7-2.1,20.2c0,0.5,0,2.2,0.9,2.2s3.9-1.6,4.9-2.1l0.6,1.7c-2.8,2.4-9.7,4.5-12.3,4.5    c-1.5,0-1.5-2.9-1.5-3.8c0-4.8,2.6-16.3,2.6-21.8c0-1.2-0.4-2.6-2-2.6c-2.9,0-5.4,4.2-6.5,6.3c-3.6,6.6-4.3,10.4-5.8,21h-7    c1.2-8.6,3.3-22.6,3.3-26c0-1.3,0-2.5-1-2.5s-3.3,1.1-4.5,1.6L52,49.4z"/>
		<path d="M102.8,37.4c0.1-2.7,2.3-4.9,5-5.1c1.7,0,3,1.3,3,3c0,0,0,0.1,0,0.1c0,2.5-2.2,5.1-4.7,5.1c-1.6,0.2-3.1-1-3.3-2.7    C102.8,37.7,102.8,37.6,102.8,37.4z"/>
	</g>
</g>
</svg>